Coordinates
version=1
nRows=8
nColumns=40
inDegrees=yes

Units are S.I. units (second, meters, Newtons, ...)
Angles are in degrees.

endheader
time	pelvis_tilt	pelvis_list	pelvis_rotation	pelvis_tx	pelvis_ty	pelvis_tz	hip_flexion_r	hip_adduction_r	hip_rotation_r	knee_angle_r	knee_angle_r_beta	ankle_angle_r	subtalar_angle_r	mtp_angle_r	hip_flexion_l	hip_adduction_l	hip_rotation_l	knee_angle_l	knee_angle_l_beta	ankle_angle_l	subtalar_angle_l	mtp_angle_l	lumbar_extension	lumbar_bending	lumbar_rotation	arm_flex_r	arm_add_r	arm_rot_r	elbow_flex_r	pro_sup_r	wrist_flex_r	wrist_dev_r	arm_flex_l	arm_add_l	arm_rot_l	elbow_flex_l	pro_sup_l	wrist_flex_l	wrist_dev_l
     19.48614286	     -4.13265835	     -4.46125493	     -1.07173751	      0.80272182	      0.93389030	      0.43288510	     31.19955370	     -4.48408561	     -5.50680065	     60.66457029	     60.66457029	      3.31051156	    -15.84256197	      2.10576075	     10.09477109	     -3.68847801	     -5.73171734	     18.85467167	     18.85467167	     15.04531818	     -8.24130599	     -0.10244920	     -9.99906555	      6.79199780	      1.75378039	     -2.58618788	    -12.84778766	     -5.31575312	     26.93135888	     46.21940548	      0.00000000	      0.00000000	     11.60814601	    -18.76628149	    -10.17755287	     70.59727121	     47.17739416	      0.00000000	      0.00000000
     19.49978571	     -4.13159233	     -4.56416341	     -1.20405453	      0.80246597	      0.93379372	      0.43315060	     31.66792216	     -4.12932788	     -5.70377718	     57.86103940	     57.86103940	      3.61136113	    -15.73889076	      2.31514802	      9.38119258	     -3.78502310	     -5.80356063	     18.43714354	     18.43714354	     15.36407817	     -8.10845995	     -0.14158992	    -10.04789839	      6.94655375	      1.80547298	     -4.56519767	    -12.19830812	     -5.09895645	     26.24274724	     46.21401370	      0.00000000	      0.00000000	     12.80336174	    -18.94933740	    -10.65447020	     71.80856906	     47.24097764	      0.00000000	      0.00000000
     19.51342857	     -4.07293904	     -4.57815629	     -1.39518240	      0.80225837	      0.93366169	      0.43351161	     31.89390289	     -3.80116632	     -5.84196665	     54.63779503	     54.63779503	      3.91824485	    -15.49577053	      2.22583491	      8.59042645	     -3.80947450	     -6.08841482	     18.01704865	     18.01704865	     15.65146994	     -7.84701361	     -0.23912696	    -10.26642399	      6.97286062	      2.20915386	     -6.61706341	    -11.63200849	     -4.84778406	     25.80870239	     46.19556660	      0.00000000	      0.00000000	     13.99827060	    -18.72367071	    -11.32019099	     73.65703006	     47.33278042	      0.00000000	      0.00000000
     19.52707143	     -4.27780715	     -4.55671426	     -1.52217999	      0.80185315	      0.93300203	      0.43391863	     32.29219186	     -3.60015387	     -6.21551560	     51.14939396	     51.14939396	      4.19123156	    -14.83689365	      2.37631547	      8.20909339	     -3.79119407	     -6.19125103	     17.77771414	     17.77771414	     15.94780586	     -7.76553824	     -0.36246875	    -10.09517096	      6.99100250	      1.85763795	     -8.17609609	    -10.95884456	     -4.75111103	     25.46112874	     46.18796814	      0.00000000	      0.00000000	     14.83273179	    -19.20033534	    -11.74230550	     74.46161091	     47.38181240	      0.00000000	      0.00000000
     19.54071429	     -4.19998116	     -4.59355168	     -1.71804598	      0.80179992	      0.93277457	      0.43447482	     32.05139147	     -3.26798847	     -6.64173303	     47.11757816	     47.11757816	      4.41794448	    -13.90855967	      1.80096662	      7.34427017	     -3.84442031	     -6.49436967	     17.29245102	     17.29245102	     16.27110659	     -7.42461856	     -0.54722928	    -10.31013000	      7.05628412	      2.14762992	     -9.95178756	    -10.44488508	     -4.67908396	     25.41949561	     46.17002179	      0.00000000	      0.00000000	     15.72602755	    -18.91060752	    -12.47257216	     76.45750453	     47.47882058	      0.00000000	      0.00000000
     19.55435714	     -4.41903964	     -4.61327010	     -1.83991085	      0.80150968	      0.93203689	      0.43503488	     32.01602687	     -2.96265744	     -7.20752733	     42.89648388	     42.89648388	      4.59375785	    -12.68995208	      1.72099295	      6.92950057	     -3.87759427	     -6.61097684	     16.97597501	     16.97597501	     16.53557828	     -7.28482886	     -0.70029530	    -10.18253948	      7.16647354	      1.91134778	    -11.30417268	     -9.94801485	     -4.65673935	     25.28441072	     46.16253343	      0.00000000	      0.00000000	     16.34135761	    -19.10530268	    -12.88580914	     77.45642239	     47.53047149	      0.00000000	      0.00000000
     19.56800000	     -4.59797784	     -4.60740337	     -2.00825508	      0.80138045	      0.93126645	      0.43577453	     31.72832114	     -2.61105707	     -7.80042913	     38.43815155	     38.43815155	      4.85197697	    -11.11676040	      1.66497792	      6.41436809	     -3.88597552	     -6.78916704	     16.58825282	     16.58825282	     16.81290743	     -7.12399904	     -0.86272619	    -10.07657005	      7.24339755	      1.85588199	    -12.52250814	     -9.44884455	     -4.64798427	     25.16974993	     46.15643609	      0.00000000	      0.00000000	     16.98992436	    -19.21580200	    -13.27929514	     78.57966831	     47.58239376	      0.00000000	      0.00000000
     19.58164286	     -4.59677328	     -4.50949094	     -2.20788688	      0.80157051	      0.93053416	      0.43659446	     30.98055413	     -2.36585548	     -8.60709149	     33.64905777	     33.64905777	      4.03591384	     -9.35540124	     -1.45204331	      5.61097167	     -3.80699037	     -7.17226993	     16.07875679	     16.07875679	     16.95208241	     -6.76471913	     -1.53987461	    -10.26633723	      7.14950233	      1.57450022	    -13.79954182	     -9.12213623	     -5.00912642	     26.28160758	     46.14640400	      0.00000000	      0.00000000	     16.86965726	    -19.11578312	    -14.67826577	     81.22911445	     47.76632243	      0.00000000	      0.00000000
